# xmcd
#
# Track frame offsets:
#	187
#	8840
#	22115
#	35992
#	49612
#	57837
#	69032
#	94245
#	107147
#	119790
#	131797
#	148590
#	159437
#
# Disc length: 2377 seconds
#
# Revision: 9
# Processed by: cddbd v1.5.2PL0 Copyright (c) Steve Scherf et al.
# Submitted via: audiograbber 1.83.01
#
DISCID=b909470d
DTITLE=Jimi Hendrix Experience - Axis - Bold As Love
DYEAR=1967
DGENRE=Oldies
TTITLE0=EXP
TTITLE1=Up From The Skies
TTITLE2=Spanish Castle Magic
TTITLE3=Wait Until Tomorrow
TTITLE4=Ain't No Telling
TTITLE5=Little Wing
TTITLE6=If 6 Was 9
TTITLE7=You Got Me Floatin'
TTITLE8=Castles Made Of Sand
TTITLE9=She's So Fine
TTITLE10=One Rainy Wish
TTITLE11=Little Miss Lover
TTITLE12=Bold As Love
EXTD=
EXTT0=
EXTT1=
EXTT2=
EXTT3=
EXTT4=
EXTT5=
EXTT6=
EXTT7=
EXTT8=
EXTT9=
EXTT10=
EXTT11=
EXTT12=
PLAYORDER=
